<svg width="16" height="16" viewBox="0 0 16 16" fill="none" xmlns="http://www.w3.org/2000/svg">
<path d="M4.49998 5.50105L7.97491 8.91397L11.4383 5.50105C11.5791 5.36022 11.77 5.28106 11.9691 5.28099C12.1682 5.28092 12.3591 5.35994 12.5 5.50067C12.6408 5.6414 12.72 5.83231 12.72 6.03141C12.7201 6.2305 12.6411 6.42147 12.5003 6.5623L8.50516 10.507C8.36451 10.6476 8.17378 10.7266 7.97491 10.7266C7.77604 10.7266 7.5853 10.6476 7.44466 10.507L3.43798 6.5623C3.36829 6.49257 3.31303 6.40979 3.27533 6.3187C3.23764 6.22761 3.21826 6.12999 3.21829 6.03141C3.21833 5.93283 3.23778 5.83522 3.27554 5.74415C3.3133 5.65309 3.36862 5.57035 3.43835 5.50067C3.50808 5.43099 3.59086 5.37572 3.68195 5.33803C3.77304 5.30034 3.87066 5.28096 3.96924 5.28099C4.06782 5.28102 4.16543 5.30048 4.2565 5.33823C4.34756 5.37599 4.43029 5.43132 4.49998 5.50105Z" fill="#121926"/>
</svg>
